<?xml version="1.0" encoding="UTF-8"?>
<svg id="Layer_1" data-name="Layer 1" xmlns="http://www.w3.org/2000/svg" viewBox="0 0 607.76 43.79">
  <defs>
    <style>
      .cls-1 {
        fill: #ffc313;
      }

      .cls-2 {
        fill: #fff;
      }
    </style>
  </defs>
  <g>
    <path class="cls-2" d="M381.46,1.71h16.43c4.27,0,8.03.86,11.3,2.57,3.27,1.71,5.8,4.09,7.61,7.15,1.81,3.06,2.71,6.54,2.71,10.47s-.9,7.41-2.71,10.47c-1.81,3.06-4.34,5.44-7.61,7.15-3.27,1.71-7.03,2.57-11.3,2.57h-16.43V1.71ZM397.66,38.39c3.54,0,6.63-.7,9.28-2.11,2.65-1.4,4.71-3.34,6.17-5.82,1.46-2.48,2.19-5.33,2.19-8.56s-.73-6.08-2.19-8.56c-1.46-2.48-3.52-4.42-6.17-5.82-2.65-1.4-5.75-2.1-9.28-2.1h-11.94v32.98h11.94Z"/>
    <path class="cls-2" d="M429.08,1.71h4.27v40.36h-4.27V1.71Z"/>
    <path class="cls-2" d="M474.92,21.89h4.09v15.4c-1.88,1.65-4.11,2.92-6.69,3.81-2.58.88-5.29,1.33-8.13,1.33-4.04,0-7.67-.88-10.9-2.65-3.23-1.77-5.77-4.22-7.61-7.35-1.85-3.13-2.77-6.64-2.77-10.52s.92-7.39,2.77-10.52c1.85-3.13,4.38-5.58,7.61-7.35,3.23-1.77,6.88-2.65,10.96-2.65,3.07,0,5.9.49,8.48,1.47,2.57.98,4.75,2.43,6.52,4.35l-2.65,2.71c-3.19-3.15-7.25-4.73-12.17-4.73-3.27,0-6.22.72-8.85,2.16-2.63,1.44-4.7,3.44-6.2,6-1.5,2.56-2.25,5.41-2.25,8.56s.75,6,2.25,8.53c1.5,2.54,3.56,4.54,6.17,6,2.61,1.46,5.55,2.19,8.82,2.19,4.15,0,7.67-1.04,10.55-3.11v-13.61Z"/>
    <path class="cls-2" d="M491.06,1.71h4.27v40.36h-4.27V1.71Z"/>
    <path class="cls-2" d="M516.32,5.4h-14.18V1.71h32.63v3.69h-14.18v36.67h-4.27V5.4Z"/>
    <path class="cls-2" d="M564.87,31.29h-22.49l-4.84,10.78h-4.44l18.45-40.36h4.21l18.45,40.36h-4.5l-4.84-10.78ZM563.31,27.83l-9.69-21.68-9.69,21.68h19.37Z"/>
    <path class="cls-2" d="M580.89,1.71h4.27v36.67h22.6v3.69h-26.87V1.71Z"/>
  </g>
  <g>
    <path class="cls-2" d="M9.17,10.26H0V1.37h28.6v8.9h-9.31v32.16h-10.13V10.26Z"/>
    <path class="cls-2" d="M33.25,1.37h17.17c8.83,0,14.57,5.34,14.57,13.07,0,7.18-3.63,11.22-9.72,12.73l11.08,15.26h-12.59l-10.47-15.33v15.33h-10.06V1.37ZM51.38,19.16c2.26,0,3.76-2.33,3.76-4.72s-1.78-4.52-4.04-4.52h-7.8v9.24h8.07Z"/>
    <path class="cls-2" d="M69.93,1.37h9.99v25.73c0,5.47,2.6,7.39,6.09,7.39,3.83,0,6.23-1.92,6.23-7.39V1.37h10.06v27.23c0,9.72-7.25,15.19-16.28,15.19s-16.08-5.75-16.08-15.19V1.37Z"/>
    <path class="cls-2" d="M108.86,1.37h27.16v8.9h-17.11v7.39h15.81v8.76h-15.81v7.39h17.86v8.62h-27.92V1.37Z"/>
    <path class="cls-2" d="M141.63,1.37h10.06v32.43h17.86v8.62h-27.92V1.37Z"/>
    <path class="cls-2" d="M174.41,1.37h10.06v41.05h-10.06V1.37Z"/>
    <path class="cls-2" d="M213.06,0c7.59,0,12.86,2.81,17.17,7.18l-6.98,6.43c-2.81-2.53-6.29-4.11-10.19-4.11-7.32,0-12.04,5.47-12.04,12.38,0,7.59,5.41,12.38,12.25,12.38,7.18,0,10.67-3.97,10.95-7.94h-11.7v-8.69h22.58v3.9c0,12.11-7.12,22.24-22.03,22.24-13,0-22.24-9.65-22.24-21.89S200.06,0,213.06,0Z"/>
    <path class="cls-2" d="M241.67,1.37h10.06v16.15h16.08V1.37h9.99v41.05h-9.99v-16.22h-16.08v16.22h-10.06V1.37Z"/>
    <path class="cls-2" d="M291.61,10.26h-9.17V1.37h28.6v8.9h-9.3v32.16h-10.13V10.26Z"/>
  </g>
  <g>
    <path class="cls-1" d="M344.69.01c-27.16.87-25.99,43.37,2.1,42.03,26.65-1.27,25.48-42.92-2.1-42.03ZM347.63,37.84c-23.37,2.22-25.04-31.92-3.78-33.62,22.66-1.82,24.9,31.62,3.78,33.62Z"/>
    <path class="cls-1" d="M343.85,6.32c-18.38,1.75-16.57,31.49,3.78,29.42,17.94-1.83,15.96-31.3-3.78-29.42Z"/>
  </g>
</svg>